<svg width="172" height="59" viewBox="0 0 172 59" fill="none" xmlns="http://www.w3.org/2000/svg">
<path d="M142.423 42.8463C153.15 42.8463 161.846 34.1503 161.846 23.4231C161.846 12.696 153.15 4 142.423 4C131.696 4 123 12.696 123 23.4231C123 34.1503 131.696 42.8463 142.423 42.8463Z" fill="#CCCCCC"/>
<path d="M134.423 49.8463C145.15 49.8463 153.846 41.1503 153.846 30.4231C153.846 19.696 145.15 11 134.423 11C123.696 11 115 19.696 115 30.4231C115 41.1503 123.696 49.8463 134.423 49.8463Z" fill="#9854CB"/>
<path d="M132.591 37.7723C132.154 37.773 131.729 37.6316 131.379 37.3695L131.358 37.3532L126.793 33.8614C126.367 33.5339 126.088 33.0504 126.017 32.5173C125.947 31.9842 126.091 31.4451 126.419 31.0184C126.746 30.5917 127.229 30.3123 127.762 30.2416C128.295 30.171 128.834 30.3149 129.261 30.6416L132.218 32.9089L139.205 23.794C139.367 23.5827 139.569 23.4053 139.799 23.2721C140.03 23.1388 140.284 23.0523 140.548 23.0175C140.812 22.9826 141.081 23.0001 141.338 23.0689C141.595 23.1377 141.836 23.2565 142.048 23.4185L142.005 23.4791L142.049 23.4189C142.476 23.7466 142.755 24.23 142.825 24.7631C142.895 25.2962 142.751 25.8354 142.424 26.2624L134.206 36.9788C134.016 37.2257 133.772 37.4255 133.492 37.5627C133.212 37.6999 132.905 37.7708 132.593 37.7698L132.591 37.7723Z" fill="white"/>
<path d="M33.508 38C33.316 40.064 32.236 41.732 30.268 43.004C28.372 44.228 25.936 44.84 22.96 44.84C19.264 44.84 16.48 43.76 14.608 41.6C13.216 39.992 12.52 38.012 12.52 35.66C12.52 33.596 13.048 31.82 14.104 30.332L16.444 29.864C15.292 31.616 14.716 33.488 14.716 35.48C14.716 37.688 15.472 39.452 16.984 40.772C18.424 42.044 20.416 42.68 22.96 42.68C25.576 42.68 27.628 42.128 29.116 41.024C30.22 40.208 30.868 39.2 31.06 38H27.388L28.54 35.768H33.616V38H33.508ZM20.692 50.78C19.708 50.78 19.216 50.288 19.216 49.304C19.216 48.32 19.708 47.828 20.692 47.828C21.628 47.828 22.096 48.32 22.096 49.304C22.096 50.288 21.628 50.78 20.692 50.78ZM24.796 50.78C23.836 50.78 23.356 50.288 23.356 49.304C23.356 48.32 23.836 47.828 24.796 47.828C25.756 47.828 26.236 48.32 26.236 49.304C26.236 50.288 25.756 50.78 24.796 50.78ZM40.6211 44.588L41.4491 42.86L48.2171 41.6L47.4251 43.328L40.6211 44.588ZM37.6413 28.352C37.6413 26.312 38.2533 24.728 39.4773 23.6C40.5333 22.64 41.9253 22.16 43.6533 22.16C45.8853 22.16 47.6013 22.976 48.8013 24.608C49.8333 26 50.3493 27.824 50.3493 30.08C50.3493 32.648 49.6893 34.652 48.3693 36.092C47.2173 37.364 45.7173 38 43.8693 38C41.6133 38 39.9333 37.28 38.8293 35.84C37.7493 37.28 36.1293 38 33.9692 38H32.4212V35.768H33.6813C36.3213 35.768 37.6413 34.4 37.6413 31.664V28.352ZM40.0533 31.808C40.0533 34.448 41.3493 35.768 43.9413 35.768C45.1893 35.768 46.1733 35.264 46.8933 34.256C47.6133 33.248 47.9733 31.844 47.9733 30.044C47.9733 28.268 47.5893 26.876 46.8213 25.868C46.0773 24.86 45.0213 24.356 43.6533 24.356C41.2533 24.356 40.0533 25.76 40.0533 28.568V31.808ZM62.3904 38C60.3504 38 58.7784 37.34 57.6744 36.02C56.7624 34.892 56.3064 33.464 56.3064 31.736V16.04L58.7184 14.78V31.664C58.7184 34.4 60.0384 35.768 62.6784 35.768H63.9384V38H62.3904ZM86.9781 35.768H88.2381V38H86.6901C84.5061 38 82.8741 37.268 81.7941 35.804C80.7141 37.268 79.0821 38 76.8981 38H73.3341C72.4941 38 71.7141 37.88 70.9941 37.64C70.2741 37.88 69.5181 38 68.7261 38H63.2181V35.768H67.8261C66.5301 34.472 65.8821 32.876 65.8821 30.98C65.8821 29.588 66.2061 28.412 66.8541 27.452C67.3581 25.46 68.3061 23.888 69.6981 22.736C71.1141 21.56 72.7701 20.972 74.6661 20.972C77.0901 20.972 79.1061 21.824 80.7141 23.528C82.2261 25.16 82.9821 27.236 82.9821 29.756V31.664C82.9821 34.4 84.3141 35.768 86.9781 35.768ZM76.7181 35.768C79.3101 35.768 80.6061 34.352 80.6061 31.52V29.756C80.6061 27.596 79.9101 25.892 78.5181 24.644C77.3901 23.66 76.0701 23.168 74.5581 23.168C72.5421 23.168 71.0061 23.948 69.9501 25.508C70.3101 25.436 70.6701 25.4 71.0301 25.4C72.5661 25.4 73.8021 25.916 74.7381 26.948C75.6741 27.956 76.1421 29.3 76.1421 30.98C76.1421 32.876 75.4941 34.472 74.1981 35.768H76.7181ZM71.0301 35.444C73.2141 34.724 74.3061 33.212 74.3061 30.908C74.3061 29.78 74.0061 28.88 73.4061 28.208C72.8301 27.512 72.0381 27.164 71.0301 27.164C70.0221 27.164 69.2181 27.5 68.6181 28.172C68.0181 28.844 67.7181 29.756 67.7181 30.908C67.7181 33.212 68.8221 34.724 71.0301 35.444ZM95.0781 17.66L95.9061 15.932L102.674 14.672L101.882 16.4L95.0781 17.66ZM92.7311 28.352C92.7311 26.312 93.3431 24.728 94.5671 23.6C95.6231 22.64 97.0151 22.16 98.7431 22.16C100.975 22.16 102.691 22.976 103.891 24.608C104.923 26 105.439 27.824 105.439 30.08C105.439 32.648 104.779 34.652 103.459 36.092C102.307 37.364 100.807 38 98.9591 38C96.7031 38 95.0231 37.28 93.9191 35.84C92.8391 37.28 91.2191 38 89.0591 38H87.5111V35.768H88.7711C91.4111 35.768 92.7311 34.4 92.7311 31.664V28.352ZM95.1431 31.808C95.1431 34.448 96.4391 35.768 99.0311 35.768C100.279 35.768 101.263 35.264 101.983 34.256C102.703 33.248 103.063 31.844 103.063 30.044C103.063 28.268 102.679 26.876 101.911 25.868C101.167 24.86 100.111 24.356 98.7431 24.356C96.3431 24.356 95.1431 25.76 95.1431 28.568V31.808Z" fill="#333333"/>
</svg>
