<svg width="289" height="383" viewBox="0 0 289 383" fill="none" xmlns="http://www.w3.org/2000/svg">
<path d="M214.244 118.14C221.423 118.14 227.244 112.32 227.244 105.14C227.244 97.9603 221.423 92.14 214.244 92.14C207.064 92.14 201.244 97.9603 201.244 105.14C201.244 112.32 207.064 118.14 214.244 118.14Z" fill="#9854CB"/>
<path d="M212.955 110.099C212.663 110.1 212.378 110.005 212.144 109.83L212.129 109.819L209.074 107.48C208.932 107.372 208.813 107.236 208.723 107.082C208.634 106.928 208.575 106.757 208.552 106.58C208.528 106.403 208.54 106.223 208.586 106.051C208.632 105.878 208.711 105.717 208.82 105.575C208.928 105.433 209.064 105.314 209.218 105.225C209.373 105.136 209.544 105.078 209.721 105.055C209.898 105.031 210.078 105.043 210.25 105.09C210.422 105.136 210.584 105.216 210.725 105.325L212.704 106.842L217.38 100.744C217.489 100.602 217.624 100.484 217.779 100.394C217.933 100.305 218.103 100.247 218.28 100.224C218.457 100.201 218.636 100.212 218.808 100.258C218.981 100.304 219.142 100.384 219.284 100.493C219.569 100.712 219.756 101.036 219.803 101.393C219.85 101.749 219.754 102.11 219.535 102.396L214.035 109.57C213.908 109.735 213.744 109.869 213.557 109.96C213.37 110.052 213.164 110.1 212.955 110.099Z" fill="white"/>
<path d="M214.244 156.14C221.423 156.14 227.244 150.32 227.244 143.14C227.244 135.96 221.423 130.14 214.244 130.14C207.064 130.14 201.244 135.96 201.244 143.14C201.244 150.32 207.064 156.14 214.244 156.14Z" fill="#9854CB"/>
<path d="M212.955 148.099C212.663 148.1 212.378 148.005 212.144 147.83L212.129 147.819L209.074 145.48C208.932 145.372 208.813 145.236 208.723 145.082C208.634 144.928 208.575 144.757 208.552 144.58C208.528 144.403 208.54 144.223 208.586 144.051C208.632 143.878 208.711 143.717 208.82 143.575C208.928 143.433 209.064 143.314 209.218 143.225C209.373 143.136 209.544 143.078 209.721 143.055C209.898 143.031 210.078 143.043 210.25 143.09C210.422 143.136 210.584 143.216 210.725 143.325L212.704 144.842L217.38 138.744C217.489 138.602 217.624 138.484 217.779 138.394C217.933 138.305 218.103 138.247 218.28 138.224C218.457 138.201 218.636 138.212 218.808 138.258C218.981 138.304 219.142 138.384 219.284 138.493C219.569 138.712 219.756 139.036 219.803 139.393C219.85 139.749 219.754 140.11 219.535 140.396L214.035 147.57C213.908 147.735 213.744 147.869 213.557 147.96C213.37 148.052 213.164 148.1 212.955 148.099Z" fill="white"/>
<path d="M221.244 200.14C228.423 200.14 234.244 194.32 234.244 187.14C234.244 179.96 228.423 174.14 221.244 174.14C214.064 174.14 208.244 179.96 208.244 187.14C208.244 194.32 214.064 200.14 221.244 200.14Z" fill="#9854CB"/>
<path d="M219.955 192.099C219.663 192.1 219.378 192.005 219.144 191.83L219.129 191.819L216.074 189.48C215.932 189.372 215.813 189.236 215.723 189.082C215.634 188.928 215.575 188.757 215.552 188.58C215.528 188.403 215.54 188.223 215.586 188.051C215.632 187.878 215.711 187.717 215.82 187.575C215.928 187.433 216.064 187.314 216.218 187.225C216.373 187.136 216.544 187.078 216.721 187.055C216.898 187.031 217.078 187.043 217.25 187.09C217.422 187.136 217.584 187.216 217.725 187.325L219.704 188.842L224.38 182.744C224.489 182.602 224.624 182.484 224.779 182.394C224.933 182.305 225.103 182.247 225.28 182.224C225.457 182.201 225.636 182.212 225.808 182.258C225.981 182.304 226.142 182.384 226.284 182.493C226.569 182.712 226.756 183.036 226.803 183.393C226.85 183.749 226.754 184.11 226.535 184.396L221.035 191.57C220.908 191.735 220.744 191.869 220.557 191.96C220.37 192.052 220.164 192.1 219.955 192.099Z" fill="white"/>
<path d="M277.514 249.02C252.684 144.75 273.394 52.62 283.454 17.86C284.053 15.7764 284.159 13.5821 283.765 11.4503C283.371 9.31842 282.487 7.30728 281.183 5.57547C279.879 3.84366 278.19 2.43854 276.25 1.47098C274.31 0.503413 272.171 -0.000152265 270.003 3.45362e-08H28.9639C26.757 0.00216105 24.5816 0.524893 22.6147 1.52573C20.6477 2.52656 18.9446 3.97728 17.6436 5.76001C7.91359 19.14 -12.2763 63.51 10.274 186.28C22.3335 251.96 22.1538 296.74 18.2139 326.24C16.0035 342.85 12.5938 354.61 9.50346 362.54L9.17387 363.38C8.523 364.985 8.18362 366.699 8.17387 368.43C8.15107 370.385 8.54303 372.323 9.32383 374.116C10.1046 375.908 11.2565 377.515 12.7037 378.83C13.6472 379.714 14.7152 380.455 15.8736 381.03C16.8353 381.521 17.8528 381.893 18.9038 382.14C19.9742 382.401 21.0721 382.532 22.1739 382.53H259.494C259.524 382.53 259.604 382.54 259.744 382.54C261.264 382.54 269.194 382.1 276.384 373.44C287.284 360.31 296.334 328.07 277.514 249.02ZM274.624 371.83C267.574 380.39 259.924 380.17 259.554 380.16H22.1739C20.2734 380.159 18.402 379.693 16.7232 378.803C15.0444 377.912 13.6094 376.623 12.5435 375.05C11.606 373.69 10.9762 372.141 10.6982 370.513C10.4202 368.884 10.5005 367.214 10.9336 365.62C11.047 365.157 11.1941 364.702 11.3736 364.26C14.9033 355.19 17.5196 345.79 19.1836 336.2C24.8238 305.45 25.8736 258 12.6138 185.85C-9.76607 63.99 10.024 20.29 19.5635 7.16C20.6458 5.68194 22.0606 4.47915 23.6936 3.6488C25.3266 2.81845 27.1319 2.38383 28.9639 2.38H270.003C271.802 2.37874 273.576 2.7955 275.186 3.59735C276.795 4.39921 278.197 5.5642 279.279 7.00043C280.361 8.43665 281.095 10.1048 281.422 11.8731C281.749 13.6415 281.661 15.4617 281.164 17.19C271.054 52.14 250.244 144.75 275.204 249.57C293.764 327.52 285.134 359.08 274.624 371.83Z" fill="#3F3D56"/>
<path d="M163.003 113.54H38.8171C36.2925 113.54 33.8714 112.538 32.0863 110.752C30.3012 108.967 29.2983 106.546 29.2983 104.022C29.2983 101.497 30.3012 99.0759 32.0863 97.2908C33.8714 95.5057 36.2925 94.5028 38.8171 94.5028H163.003C165.528 94.5028 167.949 95.5057 169.734 97.2908C171.519 99.0759 172.522 101.497 172.522 104.022C172.522 106.546 171.519 108.967 169.734 110.752C167.949 112.538 165.528 113.54 163.003 113.54Z" fill="#CCCCCC"/>
<path d="M163.003 154.54H38.8171C36.2925 154.54 33.8714 153.538 32.0863 151.752C30.3012 149.967 29.2983 147.546 29.2983 145.022C29.2983 142.497 30.3012 140.076 32.0863 138.291C33.8714 136.506 36.2925 135.503 38.8171 135.503H163.003C165.528 135.503 167.949 136.506 169.734 138.291C171.519 140.076 172.522 142.497 172.522 145.022C172.522 147.546 171.519 149.967 169.734 151.752C167.949 153.538 165.528 154.54 163.003 154.54Z" fill="#CCCCCC"/>
<path d="M173.003 196.54H48.8171C46.2925 196.54 43.8714 195.538 42.0863 193.752C40.3012 191.967 39.2983 189.546 39.2983 187.022C39.2983 184.497 40.3012 182.076 42.0863 180.291C43.8714 178.506 46.2925 177.503 48.8171 177.503H173.003C175.528 177.503 177.949 178.506 179.734 180.291C181.519 182.076 182.522 184.497 182.522 187.022C182.522 189.546 181.519 191.967 179.734 193.752C177.949 195.538 175.528 196.54 173.003 196.54Z" fill="#CCCCCC"/>
<path d="M180.003 240.54H55.8171C53.2925 240.54 50.8714 239.537 49.0863 237.752C47.3012 235.967 46.2983 233.546 46.2983 231.022C46.2983 228.497 47.3012 226.076 49.0863 224.291C50.8714 222.506 53.2925 221.503 55.8171 221.503H180.003C182.528 221.503 184.949 222.506 186.734 224.291C188.519 226.076 189.522 228.497 189.522 231.022C189.522 233.546 188.519 235.967 186.734 237.752C184.949 239.537 182.528 240.54 180.003 240.54Z" fill="#CCCCCC"/>
<path d="M180.056 39.6306H90.8171C89.5663 39.6319 88.3274 39.3866 87.1714 38.9088C86.0154 38.4311 84.965 37.7301 84.08 36.8461C83.1951 35.962 82.4931 34.9123 82.0141 33.7568C81.5351 32.6013 81.2886 31.3627 81.2886 30.1118C81.2886 28.861 81.5351 27.6224 82.0141 26.4669C82.4931 25.3114 83.1951 24.2616 84.08 23.3776C84.965 22.4935 86.0154 21.7926 87.1714 21.3148C88.3274 20.837 89.5663 20.5917 90.8171 20.593H180.056C182.58 20.593 185.002 21.5959 186.787 23.381C188.572 25.1661 189.575 27.5873 189.575 30.1118C189.575 32.6364 188.572 35.0575 186.787 36.8426C185.002 38.6277 182.58 39.6306 180.056 39.6306Z" fill="#9854CB"/>
<path d="M229.244 244.022C236.423 244.022 242.244 238.201 242.244 231.022C242.244 223.842 236.423 218.022 229.244 218.022C222.064 218.022 216.244 223.842 216.244 231.022C216.244 238.201 222.064 244.022 229.244 244.022Z" fill="#CCCCCC"/>
<path d="M186.003 283.54H61.8171C59.2925 283.54 56.8714 282.537 55.0863 280.752C53.3012 278.967 52.2983 276.546 52.2983 274.022C52.2983 271.497 53.3012 269.076 55.0863 267.291C56.8714 265.506 59.2925 264.503 61.8171 264.503H186.003C188.528 264.503 190.949 265.506 192.734 267.291C194.519 269.076 195.522 271.497 195.522 274.022C195.522 276.546 194.519 278.967 192.734 280.752C190.949 282.537 188.528 283.54 186.003 283.54Z" fill="#CCCCCC"/>
<path d="M235.244 287.022C242.423 287.022 248.244 281.201 248.244 274.022C248.244 266.842 242.423 261.022 235.244 261.022C228.064 261.022 222.244 266.842 222.244 274.022C222.244 281.201 228.064 287.022 235.244 287.022Z" fill="#CCCCCC"/>
</svg>
