<svg width="79" height="78" viewBox="0 0 79 78" fill="none" xmlns="http://www.w3.org/2000/svg">
<path d="M39.5029 78C61.042 78 78.5029 60.5391 78.5029 39C78.5029 17.4609 61.042 0 39.5029 0C17.9638 0 0.50293 17.4609 0.50293 39C0.50293 60.5391 17.9638 78 39.5029 78Z" fill="#9854CB"/>
<path d="M35.6374 53.8776C34.7599 53.8792 33.9057 53.5955 33.2036 53.0691L33.1601 53.0365L23.9948 46.0192C23.5701 45.6941 23.2136 45.2885 22.9456 44.8256C22.6777 44.3626 22.5036 43.8514 22.4333 43.3212C22.363 42.7909 22.3978 42.252 22.5358 41.7352C22.6738 41.2184 22.9123 40.7339 23.2376 40.3093C23.563 39.8847 23.9688 39.5284 24.4318 39.2607C24.8949 38.9929 25.4062 38.8191 25.9365 38.749C26.4667 38.6789 27.0057 38.714 27.5224 38.8523C28.0391 38.9905 28.5235 39.2293 28.9479 39.5548L34.8845 44.1069L48.9135 25.8109C49.2389 25.3866 49.6446 25.0305 50.1076 24.7629C50.5706 24.4954 51.0818 24.3217 51.6119 24.2517C52.142 24.1817 52.6808 24.2168 53.1973 24.3551C53.7139 24.4933 54.1982 24.7319 54.6225 25.0573L54.5353 25.1757L54.6248 25.059C55.4807 25.7169 56.0408 26.6874 56.1821 27.7577C56.3233 28.828 56.0343 29.9106 55.3784 30.7681L38.8769 52.2884C38.4952 52.7843 38.0045 53.1856 37.4427 53.4612C36.8809 53.7368 36.2631 53.8793 35.6374 53.8776Z" fill="white"/>
</svg>
